<?xml version="1.0" encoding="UTF-8"?>
<svg xmlns="http://www.w3.org/2000/svg" width="575" height="471" viewBox="0 0 575 471" role="img" aria-label="FROST ICE logo vectorizada">
  <title>FROST ICE</title>
  <rect width="100%" height="100%" fill="white"/>
  <path fill="#001F45" fill-rule="evenodd" d="M 226.00 63.00 L 225.00 123.00 L 178.00 147.00 L 178.00 218.00 L 238.00 247.00 L 293.00 219.00 L 296.00 180.00 L 320.00 225.00 L 391.00 239.00 L 419.00 177.00 L 394.00 126.00 L 341.00 115.00 L 341.00 65.00 L 284.00 35.00 Z M 267.00 285.00 L 252.00 296.00 L 247.00 308.00 L 246.00 353.00 L 250.00 367.00 L 259.00 377.00 L 274.00 383.00 L 299.00 384.00 L 318.00 379.00 L 327.00 372.00 L 334.00 357.00 L 334.00 310.00 L 330.00 299.00 L 319.00 288.00 L 305.00 283.00 L 283.00 282.00 Z M 143.00 284.00 L 143.00 382.00 L 166.00 382.00 L 166.00 351.00 L 168.00 349.00 L 179.00 349.00 L 200.00 382.00 L 225.00 382.00 L 205.00 348.00 L 215.00 341.00 L 221.00 332.00 L 222.00 306.00 L 218.00 296.00 L 209.00 288.00 L 201.00 285.00 Z M 376.00 285.00 L 364.00 293.00 L 359.00 303.00 L 358.00 318.00 L 362.00 329.00 L 372.00 337.00 L 413.00 348.00 L 416.00 358.00 L 409.00 364.00 L 390.00 364.00 L 382.00 359.00 L 380.00 351.00 L 358.00 352.00 L 361.00 370.00 L 367.00 377.00 L 389.00 384.00 L 408.00 384.00 L 428.00 378.00 L 439.00 361.00 L 437.00 340.00 L 423.00 328.00 L 385.00 318.00 L 382.00 307.00 L 390.00 302.00 L 407.00 302.00 L 415.00 308.00 L 416.00 314.00 L 437.00 314.00 L 435.00 297.00 L 425.00 287.00 L 413.00 283.00 Z M 119.00 284.00 L 48.00 285.00 L 49.00 382.00 L 72.00 382.00 L 73.00 345.00 L 113.00 345.00 L 113.00 326.00 L 73.00 326.00 L 72.00 305.00 L 119.00 304.00 Z M 325.00 119.00 L 385.00 130.00 L 388.00 132.00 L 364.00 184.00 L 301.00 171.00 Z M 459.00 284.00 L 459.00 304.00 L 486.00 305.00 L 486.00 382.00 L 509.00 382.00 L 509.00 305.00 L 537.00 304.00 L 538.00 285.00 Z M 184.00 154.00 L 233.00 179.00 L 233.00 238.00 L 232.00 239.00 L 183.00 214.00 L 183.00 155.00 Z M 287.00 155.00 L 288.00 156.00 L 288.00 214.00 L 240.00 239.00 L 239.00 238.00 L 239.00 179.00 Z M 334.00 71.00 L 335.00 113.00 L 320.00 114.00 L 298.00 164.00 L 295.00 167.00 L 294.00 148.00 L 286.00 143.00 L 286.00 95.00 Z M 279.00 303.00 L 283.00 303.00 L 284.00 302.00 L 297.00 302.00 L 305.00 305.00 L 310.00 311.00 L 311.00 314.00 L 311.00 352.00 L 309.00 357.00 L 302.00 363.00 L 299.00 364.00 L 281.00 364.00 L 275.00 361.00 L 270.00 354.00 L 269.00 350.00 L 269.00 317.00 L 270.00 316.00 L 270.00 312.00 L 273.00 307.00 Z M 189.00 148.00 L 234.00 125.00 L 237.00 125.00 L 281.00 147.00 L 282.00 150.00 L 237.00 173.00 L 234.00 173.00 L 191.00 151.00 Z M 236.00 65.00 L 281.00 42.00 L 284.00 42.00 L 327.00 63.00 L 329.00 66.00 L 308.00 78.00 L 282.00 90.00 L 237.00 67.00 Z M 303.00 179.00 L 306.00 178.00 L 363.00 190.00 L 367.00 196.00 L 383.00 231.00 L 378.00 232.00 L 324.00 220.00 L 306.00 187.00 Z M 232.00 71.00 L 263.00 86.00 L 267.00 89.00 L 269.00 89.00 L 280.00 96.00 L 280.00 138.00 L 279.00 139.00 L 277.00 139.00 L 238.00 119.00 L 233.00 120.00 L 231.00 119.00 L 231.00 72.00 Z M 394.00 139.00 L 412.00 175.00 L 412.00 181.00 L 391.00 226.00 L 388.00 227.00 L 369.00 187.00 L 380.00 165.00 L 390.00 141.00 L 392.00 139.00 Z M 48.00 424.00 L 49.00 430.00 L 179.00 430.00 L 179.00 422.00 L 49.00 422.00 Z M 407.00 426.00 L 408.00 430.00 L 537.00 430.00 L 538.00 422.00 L 408.00 422.00 Z M 345.00 405.00 L 345.00 421.00 L 344.00 422.00 L 345.00 448.00 L 376.00 448.00 L 376.00 439.00 L 356.00 439.00 L 355.00 438.00 L 356.00 430.00 L 373.00 430.00 L 373.00 422.00 L 356.00 422.00 L 355.00 414.00 L 356.00 413.00 L 376.00 413.00 L 376.00 405.00 Z M 277.00 405.00 L 273.00 407.00 L 267.00 415.00 L 266.00 419.00 L 267.00 438.00 L 272.00 445.00 L 278.00 448.00 L 295.00 447.00 L 302.00 441.00 L 304.00 434.00 L 294.00 432.00 L 293.00 436.00 L 288.00 440.00 L 280.00 439.00 L 277.00 435.00 L 277.00 418.00 L 281.00 413.00 L 285.00 412.00 L 291.00 414.00 L 293.00 416.00 L 294.00 420.00 L 303.00 418.00 L 303.00 414.00 L 301.00 410.00 L 296.00 406.00 L 290.00 404.00 Z M 166.00 305.00 L 167.00 304.00 L 192.00 304.00 L 196.00 306.00 L 199.00 311.00 L 199.00 323.00 L 197.00 327.00 L 195.00 329.00 L 193.00 330.00 L 191.00 330.00 L 190.00 331.00 L 167.00 331.00 L 166.00 330.00 Z M 212.00 405.00 L 212.00 448.00 L 222.00 448.00 L 222.00 405.00 Z M 271.00 257.00 L 271.00 259.00 L 272.00 260.00 L 331.00 260.00 L 332.00 259.00 L 332.00 257.00 L 331.00 256.00 L 272.00 256.00 Z M 191.00 257.00 L 191.00 259.00 L 193.00 260.00 L 246.00 260.00 L 247.00 258.00 L 246.00 256.00 L 192.00 256.00 Z M 153.00 238.00 L 153.00 240.00 L 154.00 241.00 L 202.00 241.00 L 202.00 240.00 L 203.00 239.00 L 202.00 238.00 L 202.00 237.00 L 154.00 237.00 Z M 307.00 239.00 L 308.00 240.00 L 308.00 241.00 L 352.00 241.00 L 353.00 240.00 L 353.00 238.00 L 352.00 237.00 L 308.00 237.00 L 308.00 238.00 Z M 362.00 257.00 L 362.00 259.00 L 363.00 260.00 L 405.00 260.00 L 406.00 259.00 L 406.00 257.00 L 405.00 256.00 L 363.00 256.00 Z M 404.00 238.00 L 404.00 240.00 L 405.00 241.00 L 431.00 241.00 L 432.00 240.00 L 432.00 237.00 L 405.00 237.00 Z"/>
</svg>
