<svg xmlns="http://www.w3.org/2000/svg" viewBox="0 0 520 520" role="img" aria-label="Isótipo Frost Ice">
  <defs><style>.s{fill:none;stroke:#0A1E3A;stroke-width:18;stroke-linecap:round;stroke-linejoin:round}</style></defs>
  <g transform="translate(85 30)">
    <path class="s" d="M170 28l86 49v99l-86 50-86-50v-99z"/>
    <path class="s" d="M170 28v99m86-50l-86 50-86-50"/>
    <path class="s" d="M60 190l86 49v99l-86 50-86-50v-99z"/>
    <path class="s" d="M60 190v99m86-50l-86 50-86-50"/>
    <path class="s" d="M255 190l96 23 47 88-50 82-98-21-48-88z"/>
    <path class="s" d="M255 190l-53 84m149-61l-52 86m49 84l-49-84-97-25"/>
    <path class="s" d="M-40 430h105m74 0h86m76 0h106" stroke-width="13"/>
    <path class="s" d="M57 470h60m145 0h62" stroke-width="13"/>
  </g>
</svg>
