<svg xmlns="http://www.w3.org/2000/svg" width="418" height="527" viewBox="0 0 418 527" role="img" aria-label="Selo 100% pura com floco de neve">
  <rect width="100%" height="100%" fill="#ffffff"/>
  <path fill="#001f52" fill-rule="evenodd" d="M 201 119 L 200 120 L 187 121 L 186 122 L 182 122 L 181 123 L 170 125 L 169 126 L 155 130 L 152 132 L 150 132 L 132 141 L 130 143 L 127 144 L 118 150 L 110 157 L 109 157 L 103 163 L 102 163 L 86 180 L 86 181 L 79 189 L 74 198 L 72 200 L 71 203 L 69 205 L 59 226 L 59 228 L 57 231 L 57 233 L 53 243 L 53 246 L 52 247 L 52 250 L 50 255 L 49 265 L 48 266 L 48 274 L 47 275 L 47 308 L 48 309 L 48 317 L 49 318 L 50 328 L 51 329 L 53 340 L 54 341 L 57 352 L 61 360 L 61 362 L 69 378 L 83 399 L 107 424 L 108 424 L 120 434 L 123 435 L 133 442 L 151 451 L 153 451 L 156 453 L 158 453 L 171 458 L 174 458 L 179 460 L 183 460 L 184 461 L 188 461 L 189 462 L 194 462 L 195 463 L 204 463 L 205 464 L 230 464 L 231 463 L 239 463 L 240 462 L 251 461 L 252 460 L 263 458 L 264 457 L 275 454 L 278 452 L 280 452 L 297 444 L 299 442 L 309 437 L 324 426 L 330 420 L 331 420 L 331 419 L 333 418 L 346 404 L 346 403 L 353 395 L 364 378 L 371 364 L 371 362 L 374 357 L 376 349 L 379 343 L 379 340 L 382 332 L 383 323 L 384 322 L 385 307 L 386 306 L 386 278 L 385 277 L 385 269 L 384 268 L 383 256 L 382 255 L 380 244 L 378 240 L 378 237 L 376 234 L 376 231 L 371 221 L 371 219 L 364 205 L 362 203 L 361 200 L 359 198 L 354 189 L 342 175 L 342 174 L 329 161 L 328 161 L 322 155 L 305 143 L 302 142 L 300 140 L 282 131 L 277 130 L 274 128 L 272 128 L 265 125 L 262 125 L 258 123 L 254 123 L 249 121 L 235 120 L 234 119 Z
M 205 129 L 229 129 L 230 130 L 240 130 L 241 131 L 250 132 L 255 134 L 259 134 L 260 135 L 274 139 L 277 141 L 279 141 L 295 149 L 300 153 L 306 156 L 318 166 L 319 166 L 342 190 L 357 213 L 360 219 L 360 221 L 362 223 L 362 225 L 364 228 L 364 230 L 366 233 L 366 235 L 370 245 L 370 248 L 371 249 L 372 256 L 373 257 L 373 261 L 374 262 L 375 275 L 376 276 L 376 308 L 375 309 L 374 321 L 373 322 L 373 326 L 372 327 L 372 331 L 370 335 L 370 338 L 369 339 L 366 350 L 364 353 L 364 355 L 360 362 L 360 364 L 358 366 L 351 380 L 337 399 L 321 415 L 320 415 L 311 423 L 302 429 L 299 430 L 297 432 L 294 433 L 292 435 L 282 440 L 280 440 L 277 442 L 275 442 L 272 444 L 270 444 L 260 448 L 257 448 L 256 449 L 253 449 L 248 451 L 244 451 L 243 452 L 227 453 L 226 454 L 208 454 L 207 453 L 191 452 L 190 451 L 186 451 L 181 449 L 177 449 L 173 447 L 170 447 L 169 446 L 161 444 L 136 432 L 121 422 L 111 413 L 110 413 L 98 401 L 98 400 L 88 389 L 80 377 L 78 372 L 76 370 L 71 360 L 71 358 L 68 353 L 68 351 L 66 348 L 66 346 L 64 342 L 64 339 L 63 338 L 61 328 L 60 327 L 59 317 L 58 316 L 58 310 L 57 309 L 57 274 L 58 273 L 59 262 L 60 261 L 60 257 L 61 256 L 62 249 L 64 245 L 64 242 L 74 217 L 76 215 L 79 208 L 83 203 L 84 200 L 87 197 L 92 189 L 97 184 L 97 183 L 118 163 L 139 149 L 153 142 L 155 142 L 158 140 L 160 140 L 163 138 L 165 138 L 172 135 L 175 135 L 176 134 L 179 134 L 184 132 L 189 132 L 190 131 L 194 131 L 195 130 L 204 130 Z
M 216 218 L 214 220 L 214 235 L 213 236 L 206 231 L 203 231 L 201 233 L 201 237 L 214 246 L 214 254 L 213 255 L 206 251 L 202 252 L 201 254 L 203 258 L 212 263 L 214 265 L 214 285 L 213 286 L 209 283 L 199 278 L 196 275 L 196 263 L 193 259 L 189 261 L 189 270 L 188 271 L 184 269 L 181 266 L 181 251 L 179 249 L 175 249 L 174 250 L 174 261 L 173 262 L 161 255 L 158 255 L 155 258 L 155 260 L 158 263 L 169 269 L 168 271 L 160 275 L 160 280 L 165 281 L 178 274 L 185 279 L 179 282 L 177 284 L 177 288 L 180 290 L 181 289 L 183 289 L 193 283 L 209 293 L 194 303 L 191 303 L 181 297 L 178 298 L 177 299 L 177 303 L 179 305 L 185 308 L 178 312 L 176 312 L 165 306 L 162 306 L 160 308 L 160 311 L 169 317 L 167 319 L 157 324 L 155 327 L 155 329 L 157 331 L 160 332 L 169 327 L 171 325 L 173 325 L 174 326 L 174 336 L 175 337 L 179 337 L 181 335 L 181 320 L 186 316 L 188 316 L 189 317 L 189 325 L 190 326 L 194 326 L 196 324 L 196 311 L 206 304 L 213 301 L 214 302 L 214 321 L 212 323 L 203 328 L 201 332 L 203 335 L 206 335 L 213 331 L 214 332 L 214 340 L 211 343 L 202 348 L 200 352 L 202 355 L 206 355 L 213 351 L 214 352 L 214 367 L 215 368 L 220 368 L 221 367 L 221 352 L 223 351 L 230 356 L 232 356 L 235 353 L 235 351 L 233 348 L 230 347 L 221 340 L 221 332 L 222 331 L 229 335 L 232 335 L 234 333 L 234 330 L 231 327 L 228 326 L 221 321 L 221 302 L 222 301 L 229 304 L 239 311 L 239 324 L 241 326 L 245 326 L 246 325 L 246 317 L 247 316 L 252 318 L 255 321 L 254 334 L 256 337 L 260 337 L 262 335 L 262 326 L 263 325 L 275 332 L 279 330 L 280 328 L 279 325 L 270 320 L 267 317 L 269 315 L 275 312 L 276 309 L 274 306 L 270 306 L 260 312 L 257 312 L 251 308 L 258 303 L 258 299 L 256 297 L 254 297 L 248 300 L 246 302 L 242 303 L 231 297 L 226 293 L 235 287 L 240 285 L 242 283 L 247 285 L 249 287 L 255 290 L 257 289 L 259 286 L 258 284 L 252 280 L 251 278 L 258 274 L 270 281 L 274 281 L 276 279 L 276 276 L 271 272 L 268 271 L 267 269 L 277 263 L 280 259 L 279 258 L 279 256 L 274 255 L 270 258 L 265 260 L 263 262 L 262 261 L 262 252 L 260 249 L 257 249 L 255 250 L 255 266 L 253 268 L 247 271 L 246 270 L 246 261 L 244 259 L 242 259 L 239 262 L 239 276 L 222 286 L 221 285 L 221 265 L 226 261 L 232 258 L 234 256 L 234 253 L 232 251 L 229 251 L 225 254 L 222 255 L 221 254 L 221 246 L 223 244 L 234 238 L 235 233 L 233 231 L 230 231 L 222 236 L 221 235 L 221 219 Z
M 231 151 L 230 152 L 228 152 L 223 157 L 221 161 L 219 177 L 222 185 L 225 188 L 230 190 L 240 190 L 244 188 L 247 185 L 249 181 L 249 179 L 250 178 L 250 173 L 251 172 L 251 163 L 250 162 L 250 159 L 246 154 L 239 151 Z
M 185 153 L 179 156 L 175 161 L 175 163 L 174 164 L 174 173 L 175 174 L 176 181 L 179 187 L 184 191 L 186 191 L 187 192 L 193 192 L 194 191 L 199 190 L 202 188 L 205 184 L 205 182 L 206 181 L 206 170 L 205 169 L 205 166 L 204 165 L 203 160 L 199 155 L 195 153 Z
M 224 394 L 225 403 L 226 404 L 226 409 L 227 410 L 227 415 L 228 416 L 229 426 L 230 427 L 230 431 L 236 431 L 237 430 L 239 430 L 238 421 L 237 420 L 237 417 L 238 416 L 242 416 L 252 427 L 255 427 L 256 426 L 261 425 L 261 424 L 251 414 L 256 406 L 255 397 L 252 393 L 248 391 L 238 391 L 237 392 L 232 392 L 231 393 L 226 393 Z
M 165 383 L 159 378 L 149 373 L 147 371 L 145 371 L 143 376 L 139 381 L 134 391 L 129 398 L 127 402 L 127 404 L 133 407 L 135 407 L 136 404 L 141 397 L 145 400 L 152 403 L 157 403 L 161 401 L 164 398 L 167 391 L 167 388 Z
M 282 375 L 279 375 L 273 378 L 271 380 L 271 382 L 272 383 L 272 388 L 274 393 L 275 403 L 276 404 L 277 416 L 278 418 L 280 418 L 286 415 L 285 407 L 292 402 L 296 400 L 302 406 L 303 406 L 310 401 Z
M 181 388 L 179 393 L 179 397 L 178 398 L 178 402 L 177 403 L 177 407 L 176 408 L 176 412 L 175 413 L 176 421 L 179 425 L 184 428 L 191 429 L 192 430 L 199 429 L 205 424 L 207 420 L 208 412 L 209 411 L 209 406 L 210 405 L 210 401 L 211 400 L 211 394 L 209 394 L 208 393 L 203 393 L 202 394 L 202 399 L 201 400 L 201 404 L 200 405 L 200 410 L 199 411 L 198 418 L 194 422 L 190 422 L 188 421 L 184 416 L 189 390 Z
M 150 164 L 143 168 L 140 174 L 136 178 L 136 180 L 138 182 L 139 185 L 146 177 L 148 179 L 148 181 L 152 188 L 152 190 L 155 195 L 155 197 L 158 202 L 160 202 L 166 199 L 155 175 L 155 173 Z
M 273 159 L 268 162 L 265 168 L 265 173 L 269 178 L 273 180 L 277 180 L 279 179 L 283 174 L 283 172 L 284 171 L 284 165 L 281 161 L 276 159 Z
M 290 187 L 284 189 L 281 193 L 281 195 L 280 196 L 280 201 L 281 203 L 286 207 L 292 207 L 296 204 L 299 198 L 299 194 L 298 192 L 295 189 Z
M 235 158 L 237 158 L 241 161 L 242 163 L 242 172 L 241 173 L 240 180 L 237 183 L 232 183 L 229 180 L 228 174 L 229 173 L 230 163 L 231 161 Z
M 187 160 L 191 160 L 195 164 L 195 166 L 196 167 L 196 171 L 197 172 L 197 181 L 194 184 L 189 184 L 185 179 L 184 171 L 183 170 L 183 165 Z
M 302 172 L 299 170 L 294 171 L 261 196 L 263 196 L 266 198 L 269 197 L 277 190 L 292 180 L 295 177 L 299 175 Z
M 331 283 L 326 287 L 326 290 L 325 291 L 326 292 L 326 295 L 330 299 L 337 299 L 341 295 L 341 288 L 338 284 L 336 283 Z
M 98 283 L 93 287 L 93 290 L 92 291 L 93 292 L 93 295 L 98 299 L 103 299 L 105 298 L 108 294 L 108 288 L 105 284 L 103 283 Z
M 234 400 L 238 398 L 244 398 L 247 402 L 247 405 L 243 409 L 238 409 L 236 410 L 235 409 Z
M 150 382 L 155 384 L 158 388 L 157 392 L 154 395 L 151 395 L 145 391 L 145 389 L 147 385 Z
M 280 386 L 281 385 L 291 395 L 284 399 L 282 397 Z
M 276 164 L 279 168 L 278 169 L 278 171 L 274 175 L 271 173 L 271 169 L 272 167 Z
M 291 192 L 293 194 L 293 197 L 289 202 L 287 202 L 285 199 L 286 198 L 286 196 L 290 192 Z"/>
</svg>